<svg width="168" height="158" viewBox="0 0 168 158" fill="none" xmlns="http://www.w3.org/2000/svg">
<path d="M54.6666 5.48242C51.4645 5.48242 48.5954 6.19935 46.1489 7.614C43.7986 8.97743 41.8261 11.0066 40.2762 13.6439C38.8289 16.1147 37.7594 19.1232 37.0997 22.5798C35.8381 29.2498 36.1071 37.5968 37.8938 46.712C38.1201 47.8685 38.3678 49.025 38.6367 50.1815C37.2532 50.6 35.8782 51.046 34.5124 51.5193C25.8987 54.5214 18.6939 58.4453 13.6793 62.8621C11.0792 65.1537 9.06826 67.5733 7.69135 70.0569C6.28653 72.5067 5.5284 75.2734 5.48828 78.0967C5.48828 83.5121 8.49188 88.9979 14.1661 93.9715C19.5136 98.6635 27.0706 102.754 36.0174 105.814C36.85 106.095 37.6932 106.368 38.5471 106.633C38.25 107.929 37.9767 109.231 37.7273 110.538C36.0238 119.493 35.8253 127.693 37.1509 134.241C37.8362 137.634 38.9249 140.578 40.3915 143.011C41.9477 145.597 43.9267 147.594 46.2642 148.944C48.7363 150.365 51.6374 151.089 54.8972 151.089C59.3289 151.089 64.2922 149.77 69.6398 147.184C74.8785 144.636 80.226 140.994 85.5352 136.36C86.3852 135.617 87.2201 134.857 88.0392 134.081H127.4C132.959 134.081 137.753 133.27 141.784 131.649C145.81 130.027 149.115 127.844 151.698 125.1C154.281 122.356 156.174 119.083 157.378 115.281C158.616 111.329 159.228 107.208 159.191 103.068C159.191 95.463 157.814 89.1643 155.079 84.1202C152.372 79.1401 148.387 75.9097 143.122 74.4289C143.079 74.4144 143.043 74.3852 143.02 74.3466C142.996 74.308 142.987 74.2623 142.994 74.2177C142.99 74.1791 142.997 74.14 143.016 74.1057C143.034 74.0714 143.062 74.0435 143.097 74.0256C146.95 71.902 150.093 68.6918 152.133 64.7952C154.259 60.8052 155.322 56.0043 155.322 50.3927C155.322 41.1303 152.978 34.2427 148.31 29.6659C143.643 25.0869 137.44 22.7996 129.699 22.8039H87.9944C87.3448 22.1936 86.6872 21.5918 86.0219 20.9987C80.5078 16.1147 75.0065 12.274 69.6782 9.60474C64.209 6.87787 59.156 5.48242 54.6666 5.48242ZM54.7114 16.3707C57.4909 16.3707 61.0837 17.4589 65.1056 19.5201C69.4605 21.7605 74.1932 25.0891 78.7722 29.1538L79.6432 29.9411C75.4266 34.6253 71.4795 39.545 67.821 44.6765C61.3142 45.3166 55.0637 46.264 49.2038 47.4994C48.9937 46.5763 48.7973 45.6502 48.6146 44.7213L48.589 44.6189C47.1928 37.488 46.8534 30.9781 47.6091 25.7868C48.2559 21.3316 49.7097 18.1438 51.6054 17.0492C52.5608 16.5537 53.6296 16.3175 54.705 16.3643M87.751 36.9567V119.608L82.8518 113.553L79.6496 109.603C78.0294 107.606 75.442 103.912 72.3488 99.2076C70.5829 96.5167 68.8873 93.7804 67.2638 91.0014L67.1677 90.8414C65.6947 88.2937 64.5868 86.2326 63.7094 84.5875C62.5975 82.5097 61.5151 80.4164 60.4625 78.308L60.6546 77.9367L60.6674 77.9111C61.8288 75.5445 63.0374 73.2012 64.2922 70.8827L64.2986 70.8635L65.6307 68.2902L67.5904 65.0449L67.6032 65.0193C68.3376 63.7689 69.0911 62.5228 69.8639 61.281L71.2088 59.0534C72.9237 56.2096 74.7679 53.4456 76.7357 50.7704C77.9589 49.0805 79.1245 47.5954 80.9689 45.291L81.065 45.1694L81.097 45.1246C81.8484 44.1644 82.5977 43.232 83.3449 42.3273L83.3705 42.2953L83.3833 42.2761C84.8298 40.4935 86.2815 38.7204 87.751 36.9567ZM103.064 38.5698H127.586C131.697 38.5741 134.844 39.7178 137.025 42.0008C140.292 45.4254 140.292 48.2355 140.292 53.8557C140.292 58.8486 139.075 62.6572 136.66 65.3393C134.24 68.0214 131.217 69.3336 127.586 69.3336H103.064C102.974 69.3336 102.904 69.2376 102.904 69.1224V38.7811C102.904 38.6658 102.974 38.5698 103.064 38.5698ZM59.9117 56.6274C58.1463 59.5188 56.4529 62.4536 54.8331 65.4289C53.8767 62.9781 52.9862 60.5021 52.1625 58.0036C54.7329 57.476 57.3168 57.0171 59.9117 56.6274ZM41.5635 60.6857C43.4079 66.3955 45.7199 72.3101 48.4289 78.276C45.7671 84.0904 43.4427 90.0533 41.4674 96.1351C40.8243 95.9344 40.1838 95.7253 39.5461 95.5078C32.1044 92.9665 25.9051 89.6828 21.627 86.0213C18.348 83.2176 16.3947 80.2603 16.3947 78.1095C16.3947 75.9012 18.348 73.0527 21.7615 70.3002C25.7322 67.0868 31.3871 64.1551 38.0988 61.8123C39.2465 61.4149 40.4016 61.0393 41.5635 60.6857ZM103.07 83.3649H129.641C134.24 83.3649 137.775 84.7987 140.336 87.7944C142.898 90.7902 144.16 94.9957 144.16 100.52C144.16 106.134 142.879 110.506 140.336 113.559C137.813 116.644 134.248 118.185 129.641 118.181H103.07C102.98 118.181 102.91 118.085 102.91 117.969V83.5761C102.91 83.4545 102.974 83.3649 103.07 83.3649ZM54.8459 91.091C56.5126 94.1471 58.2594 97.1588 60.0846 100.123C57.3996 99.7542 54.7258 99.3081 52.0665 98.7852C52.899 96.2631 53.8255 93.6984 54.8459 91.091ZM49.1205 109.296C54.8972 110.48 61.2246 111.37 67.949 111.946C71.6377 117.113 75.6192 122.065 79.8738 126.777C79.3742 127.238 78.8704 127.691 78.3624 128.134C72.4897 133.274 66.5849 136.981 61.3014 138.869L61.1861 138.914C58.8166 139.746 56.7032 140.168 54.91 140.168C53.5736 140.168 52.5105 139.942 51.7206 139.49C49.7994 138.383 48.3136 135.265 47.6283 130.938C46.8342 125.888 47.116 119.531 48.4353 112.554C48.6445 111.466 48.8729 110.38 49.1205 109.296Z" fill="white"/>
</svg>
