<svg width="168" height="158" viewBox="0 0 168 158" fill="none" xmlns="http://www.w3.org/2000/svg">
<path d="M50.6191 0H68.014V7.08042H57.8929V14.1608H68.014V21.2412H50.6191V0ZM71.4889 0H88.8905V6.16088H78.7694V7.38912H88.8905V21.5499H71.4889V15.0869H81.61V13.8521H71.4889V0ZM92.3722 0H109.76V6.16088H99.6391V7.38912H109.76V21.5499H92.3722V15.0869H102.493V13.8521H92.3722V0Z" fill="white"/>
<path fill-rule="evenodd" clip-rule="evenodd" d="M80.9063 157.633L34.0522 144.97L20.2402 30.9805H141.694L127.889 144.957L80.9063 157.633ZM47.547 82.5795L48.8358 96.5564H98.6115L96.9449 114.684L80.9265 118.901H80.913L64.9216 114.698L63.896 103.551H49.4768L51.4875 125.502L80.9063 133.449L110.372 125.502L113.962 86.3299L114.313 82.5795L116.904 54.2775H44.9628L46.2718 68.261H101.169L99.8598 82.5795H47.547Z" fill="white"/>
</svg>
