<svg width="168" height="158" viewBox="0 0 168 158" fill="none" xmlns="http://www.w3.org/2000/svg">
<mask id="mask0_5_131" style="mask-type:luminance" maskUnits="userSpaceOnUse" x="0" y="0" width="168" height="158">
<path d="M0 0H167.304V157.646H0V0Z" fill="white"/>
</mask>
<g mask="url(#mask0_5_131)">
<path d="M35.416 0H42.9586V7.02182H49.8599V0H57.4026V21.2559H49.8599V14.1422H42.9586V21.2559H35.423L35.416 0ZM67.3153 7.04809H60.6789V0H81.5013V7.04809H74.858V21.2559H67.3153V7.04809ZM84.8056 0H92.6689L97.5068 7.46848L102.338 0H110.201V21.2559H102.693V10.7199L97.5068 18.2804H97.3743L92.1809 10.7265V21.2559H84.8056V0ZM113.951 0H121.501V14.2341H132.097V21.2625H113.951V0Z" fill="white"/>
<path fill-rule="evenodd" clip-rule="evenodd" d="M35.1767 144.978L20.9141 30.9805H146.392L132.123 144.965L83.5834 157.642L35.1767 144.978ZM64.0158 82.5767L62.6634 68.2572H119.442L120.767 54.2792H46.4558L50.4572 96.5612H101.882L100.16 114.691L83.6113 118.908H83.5973L67.0761 114.704L66.0165 103.557H51.1125L53.1898 125.509L83.5834 133.457L114.026 125.509L117.734 86.3339L118.097 82.5833L64.0158 82.5767Z" fill="white"/>
</g>
</svg>
