<svg width="168" height="158" viewBox="0 0 168 158" fill="none" xmlns="http://www.w3.org/2000/svg">
<path d="M122.879 53.0956V35.0256C125.271 33.9062 127.296 32.1324 128.721 29.9097C130.145 27.6869 130.91 25.1063 130.927 22.4667V22.0413C130.917 18.351 129.447 14.8146 126.837 12.2045C124.226 9.5944 120.689 8.12279 116.997 8.11106H116.571C112.88 8.12278 109.344 9.59352 106.734 12.2022C104.124 14.8109 102.652 18.3457 102.64 22.035V22.4604C102.655 25.0843 103.409 27.651 104.815 29.8666C106.222 32.0821 108.224 33.8568 110.594 34.9875L110.676 35.0256V53.1337C103.762 54.1834 97.2523 57.0542 91.8159 61.4512L91.8921 61.3877L42.1657 22.689C43.1125 19.1439 42.7997 15.3804 41.2807 12.04C39.7617 8.6997 37.1305 5.9894 33.8358 4.37121C30.5411 2.75302 26.7869 2.32715 23.2132 3.1662C19.6395 4.00526 16.4676 6.05728 14.2383 8.97242C12.009 11.8875 10.8603 15.4853 10.9881 19.1523C11.116 22.8192 12.5124 26.3283 14.9392 29.0813C17.3661 31.8343 20.6732 33.6607 24.2967 34.2491C27.9201 34.8375 31.6356 34.1515 34.8097 32.3081L34.7334 32.3462L83.6277 70.3846C79.3137 76.8657 77.0191 84.4798 77.0339 92.2642C77.0149 100.471 79.5624 108.478 84.3201 115.166L84.2375 115.039L69.3602 129.915C68.1685 129.534 66.927 129.331 65.6759 129.312H65.6632C63.1089 129.312 60.6121 130.069 58.4883 131.487C56.3646 132.906 54.7093 134.922 53.7318 137.28C52.7544 139.639 52.4986 142.234 52.9969 144.738C53.4952 147.242 54.7252 149.542 56.5313 151.348C58.3374 153.153 60.6385 154.382 63.1437 154.88C65.6488 155.378 68.2455 155.123 70.6053 154.146C72.9651 153.169 74.982 151.514 76.4011 149.391C77.8201 147.269 78.5775 144.773 78.5775 142.22C78.5581 140.936 78.344 139.662 77.9423 138.442L77.9741 138.531L92.6925 123.82C97.4898 127.479 103.059 129.996 108.976 131.18C114.893 132.364 121.002 132.183 126.839 130.652C132.676 129.121 138.086 126.279 142.659 122.344C147.232 118.408 150.846 113.482 153.227 107.94C155.609 102.398 156.694 96.3865 156.401 90.3621C156.109 84.3378 154.445 78.4596 151.537 73.1746C148.629 67.8896 144.554 63.337 139.621 59.8631C134.688 56.3892 129.027 54.0856 123.07 53.1273L122.841 53.0956H122.879ZM116.755 112.639C112.73 112.628 108.798 111.424 105.457 109.181C102.116 106.938 99.5141 103.755 97.9813 100.035C96.4484 96.3148 96.0529 92.2241 96.8446 88.2794C97.6364 84.3347 99.5799 80.713 102.43 77.8717C105.28 75.0303 108.908 73.0968 112.856 72.3153C116.805 71.5338 120.897 71.9393 124.615 73.4807C128.333 75.022 131.511 77.6301 133.747 80.9755C135.983 84.3209 137.177 88.2536 137.178 92.2768V92.2895C137.179 94.9638 136.653 97.6119 135.629 100.083C134.606 102.554 133.105 104.799 131.213 106.69C129.321 108.581 127.075 110.08 124.603 111.103C122.131 112.126 119.482 112.652 116.806 112.652L116.755 112.639Z" fill="white"/>
</svg>
