<svg width="168" height="158" viewBox="0 0 168 158" fill="none" xmlns="http://www.w3.org/2000/svg">
<path d="M5.48828 0V157.634H163.199V0H5.48828ZM88.9099 134.32C86.5821 139.048 82.1384 142.154 76.9895 143.654C69.0774 145.47 61.5098 144.434 55.8802 141.057C52.1127 138.747 49.1705 135.191 47.1732 131.093L59.1845 123.741C59.2892 123.785 59.6047 124.355 60.0261 125.092C61.5578 127.657 62.8787 129.473 65.4753 130.748C68.0264 131.618 73.6271 132.174 75.7896 127.687C77.1106 125.405 76.6905 118.068 76.6905 109.95C76.6892 97.1945 76.7485 84.4917 76.7485 71.881H91.5216C91.5216 85.7528 91.5973 98.8906 91.5216 112.427C91.5532 120.725 92.2736 128.122 88.9099 134.32ZM150.195 130.149C145.06 147.705 116.43 148.275 104.989 136.676C102.571 133.946 101.056 132.52 99.6141 129.368C105.694 125.872 105.694 125.872 111.61 122.451C114.824 127.388 117.795 130.103 123.141 131.214C130.393 132.1 137.689 129.609 136.053 121.91C134.371 115.623 121.203 114.093 112.241 107.369C103.143 101.261 101.011 86.4212 108.488 77.9417C110.979 74.8054 115.229 72.4649 119.688 71.34L124.341 70.7385C133.275 70.5582 138.859 72.9164 142.958 77.4915C144.099 78.6467 145.03 79.8926 146.771 82.5926C142.012 85.6242 142.027 85.5952 135.21 90.0064C133.754 86.8714 131.338 84.9041 128.784 84.0491C124.82 82.8486 119.821 84.1538 118.784 88.3405C118.425 89.6306 118.499 90.8311 119.071 92.9623C120.677 96.6232 126.067 98.2147 130.901 100.435C144.819 106.077 149.519 112.127 150.675 119.328C151.787 125.527 150.406 129.549 150.195 130.149Z" fill="white"/>
</svg>
