<svg width="168" height="158" viewBox="0 0 168 158" fill="none" xmlns="http://www.w3.org/2000/svg">
<path d="M85.0849 65.414C92.7114 65.414 98.9311 71.6306 98.9311 79.4014C98.9311 86.8021 92.7114 93.0927 85.0849 93.0927C77.4585 93.0927 71.2388 86.8021 71.2388 79.4014C71.2388 71.6306 77.4585 65.414 85.0849 65.414ZM50.8028 138.607C55.4676 141.419 65.6856 137.127 77.4585 126.026C73.6082 121.659 69.832 116.923 66.2779 111.965C60.3117 111.39 54.3799 110.5 48.5075 109.3C44.7313 125.138 46.1381 136.017 50.8028 138.607ZM56.0599 96.127L53.9127 92.3526C53.0982 94.4988 52.2837 96.645 51.7654 98.7172C53.7646 99.1613 55.9859 99.5313 58.2812 99.9014L56.0599 96.127ZM104.484 90.5024L110.482 79.4014L104.484 68.3003C102.263 64.3779 99.8936 60.8996 97.7464 57.4213C93.748 57.1993 89.5275 57.1993 85.0849 57.1993C80.6423 57.1993 76.4219 57.1993 72.4235 57.4213C70.2763 60.8996 67.9069 64.3779 65.6856 68.3003L59.688 79.4014L65.6856 90.5024C67.9069 94.4248 70.2763 97.9032 72.4235 101.381C76.4219 101.604 80.6423 101.604 85.0849 101.604C89.5275 101.604 93.748 101.604 97.7464 101.381C99.8936 97.9032 102.263 94.4248 104.484 90.5024ZM85.0849 40.7697C83.6781 42.3978 82.1972 44.1 80.7164 46.0982H89.4535C87.9726 44.1 86.4918 42.3978 85.0849 40.7697ZM85.0849 118.033C86.4918 116.405 87.9726 114.703 89.4535 112.705H80.7164C82.1972 114.703 83.6781 116.405 85.0849 118.033ZM119.293 20.1957C114.702 17.3834 104.484 21.6758 92.7114 32.7769C96.5617 37.1433 100.338 41.8798 103.892 46.8383C109.964 47.4303 115.961 48.3184 121.662 49.5025C125.439 33.665 124.032 22.786 119.293 20.1957ZM114.11 62.6758L116.257 66.4501C117.072 64.3039 117.886 62.1577 118.404 60.0855C116.405 59.6415 114.184 59.2715 111.889 58.9014L114.11 62.6758ZM124.846 10.5008C135.731 16.7174 136.915 33.0729 132.325 52.1668C151.132 57.7173 164.682 66.8942 164.682 79.4014C164.682 91.9086 151.132 101.085 132.325 106.636C136.915 125.73 135.731 142.085 124.846 148.302C114.036 154.519 99.3013 147.414 85.0849 133.871C70.8686 147.414 56.134 154.519 45.2496 148.302C34.4393 142.085 33.2546 125.73 37.8452 106.636C19.0382 101.085 5.48828 91.9086 5.48828 79.4014C5.48828 66.8942 19.0382 57.7173 37.8452 52.1668C33.2546 33.0729 34.4393 16.7174 45.2496 10.5008C56.134 4.28418 70.8686 11.3889 85.0849 24.9322C99.3013 11.3889 114.036 4.28418 124.846 10.5008ZM122.699 79.4014C125.216 84.9519 127.438 90.5025 129.289 96.127C144.838 91.4645 153.575 84.8039 153.575 79.4014C153.575 73.9989 144.838 67.3382 129.289 62.6758C127.438 68.3003 125.216 73.8509 122.699 79.4014ZM47.4709 79.4014C44.9534 73.8509 42.7321 68.3003 40.881 62.6758C25.3319 67.3382 16.5948 73.9989 16.5948 79.4014C16.5948 84.8039 25.3319 91.4645 40.881 96.127C42.7321 90.5025 44.9534 84.9519 47.4709 79.4014ZM114.11 96.127L111.889 99.9014C114.184 99.5313 116.405 99.1613 118.404 98.7172C117.886 96.645 117.072 94.4988 116.257 92.3526L114.11 96.127ZM92.7114 126.026C104.484 137.127 114.702 141.419 119.293 138.607C124.032 136.017 125.439 125.138 121.662 109.3C115.961 110.484 109.964 111.372 103.892 111.965C100.338 116.923 96.5617 121.659 92.7114 126.026ZM56.0599 62.6758L58.2812 58.9014C55.9859 59.2715 53.7646 59.6415 51.7654 60.0855C52.2837 62.1577 53.0982 64.3039 53.9127 66.4501L56.0599 62.6758ZM77.4585 32.7769C65.6856 21.6758 55.4676 17.3834 50.8028 20.1957C46.1381 22.786 44.7313 33.665 48.5075 49.5025C54.3799 48.3025 60.3117 47.4132 66.2779 46.8383C69.832 41.8798 73.6082 37.1433 77.4585 32.7769Z" fill="white"/>
</svg>
