<svg width="168" height="158" viewBox="0 0 168 158" fill="none" xmlns="http://www.w3.org/2000/svg">
<path d="M61.7954 106.19C58.921 109.063 58.921 114.299 61.7954 117.172C64.6697 120.045 69.9082 120.045 72.7826 117.172L122.488 67.4908C128.763 61.2189 138.439 61.2189 144.463 67.4908C150.738 73.7707 150.738 83.4415 144.463 89.4544L95.8015 138.351C102.085 144.631 111.76 144.631 117.776 138.351L155.709 100.436C167.749 88.4105 167.749 68.5347 155.709 55.9829C143.677 43.9571 123.792 43.9571 111.242 55.9829L61.7954 106.19ZM139.232 72.9857C136.35 70.1047 131.119 70.1047 128.245 72.9857L78.5312 122.918C72.2563 129.198 62.5807 129.198 56.5649 122.918C53.6825 120.045 48.452 120.045 45.5777 122.918C42.6952 125.799 42.6952 131.027 45.5777 133.908C57.6094 145.934 77.4948 145.934 90.0447 133.908L139.491 84.2265C142.107 81.0866 142.107 75.8667 139.232 72.9857ZM56.2977 100.436L106.011 50.755C108.886 47.8821 108.886 42.6542 106.011 39.7732C103.129 36.9003 97.8985 36.9003 95.0161 39.7732L45.0595 89.4625C38.7764 95.7344 29.0928 95.7344 23.0769 89.4625C21.5836 87.994 20.3976 86.2431 19.5881 84.3118C18.7785 82.3805 18.3616 80.3076 18.3616 78.2136C18.3616 76.1197 18.7785 74.0467 19.5881 72.1155C20.3976 70.1842 21.5836 68.4333 23.0769 66.9648L71.7381 18.5945C65.4551 12.3227 55.7795 12.3227 49.7637 18.5945L11.8306 56.509C-0.209166 68.5347 -0.209166 88.4105 11.8306 100.962C23.8623 112.988 44.266 112.988 56.2977 100.436ZM28.8337 83.9757C31.708 86.8486 36.9385 86.8486 39.8209 83.9757L89.7856 34.2863C96.0687 28.0145 105.744 28.0145 111.76 34.2863C114.643 37.1673 119.873 37.1673 122.747 34.2863C125.63 31.4134 125.63 26.1936 122.747 23.3126C110.716 11.2787 90.8301 11.2787 78.2802 23.3126L28.5665 72.9938C27.8097 73.7032 27.2114 74.5644 26.8106 75.5209C26.4099 76.4775 26.2157 77.5078 26.241 78.5445C26.2662 79.5812 26.5102 80.6009 26.957 81.5369C27.4038 82.4728 28.0433 83.3039 28.8337 83.9757Z" fill="white"/>
</svg>
