<svg width="168" height="158" viewBox="0 0 168 158" fill="none" xmlns="http://www.w3.org/2000/svg">
<path d="M29.1157 68.4581H57.3445L37.3428 48.4662C29.7195 48.4662 23.5303 42.28 23.5303 34.585C23.5303 30.9235 24.9855 27.4119 27.5759 24.8228C30.1662 22.2338 33.6795 20.7792 37.3428 20.7792C45.0416 20.7792 51.2308 26.9654 51.2308 34.585L71.2325 54.5769V26.3619C68.656 23.7625 67.2105 20.2513 67.2105 16.5922C67.2105 12.9331 68.656 9.42201 71.2325 6.82259C72.5038 5.53156 74.0194 4.50625 75.691 3.80638C77.3626 3.10652 79.1569 2.74609 80.9692 2.74609C82.7816 2.74609 84.5758 3.10652 86.2474 3.80638C87.919 4.50625 89.4346 5.53156 90.7059 6.82259C96.0649 12.1789 96.0649 20.9301 90.7059 26.3619V54.5769L110.783 34.585C110.783 30.9235 112.238 27.4119 114.829 24.8228C117.419 22.2338 120.932 20.7792 124.596 20.7792C128.259 20.7792 131.772 22.2338 134.363 24.8228C136.953 27.4119 138.408 30.9235 138.408 34.585C138.408 42.28 132.219 48.4662 124.596 48.4662L104.594 68.4581H132.823C135.423 65.8828 138.936 64.438 142.597 64.438C146.258 64.438 149.771 65.8828 152.372 68.4581C157.806 73.8144 157.806 82.5656 152.372 87.9219C147.013 93.2783 138.257 93.2783 132.823 87.9219H104.594L124.596 107.989C132.219 107.989 138.408 114.1 138.408 121.795C138.408 125.457 136.953 128.968 134.363 131.557C131.772 134.146 128.259 135.601 124.596 135.601C116.897 135.601 110.783 129.415 110.783 121.795L90.7059 101.803V130.018C96.0649 135.45 96.0649 144.201 90.7059 149.557C85.347 154.989 76.5915 154.989 71.2325 149.557C68.656 146.958 67.2105 143.447 67.2105 139.788C67.2105 136.129 68.656 132.618 71.2325 130.018V101.803L51.2308 121.795C51.2308 129.415 45.0416 135.601 37.3428 135.601C33.6795 135.601 30.1662 134.146 27.5759 131.557C24.9855 128.968 23.5303 125.457 23.5303 121.795C23.5303 118.134 24.9855 114.622 27.5759 112.033C30.1662 109.444 33.6795 107.989 37.3428 107.989L57.3445 87.9219H29.1157C23.6812 93.2783 14.9257 93.2783 9.56678 87.9219C8.27511 86.6513 7.2493 85.1364 6.54909 83.4656C5.84889 81.7948 5.48828 80.0015 5.48828 78.19C5.48828 76.3786 5.84889 74.5852 6.54909 72.9144C7.2493 71.2436 8.27511 69.7288 9.56678 68.4581C12.1675 65.8828 15.6803 64.438 19.3412 64.438C23.0021 64.438 26.515 65.8828 29.1157 68.4581Z" fill="white"/>
</svg>
