<svg width="146" height="146" viewBox="0 0 146 146" fill="none" xmlns="http://www.w3.org/2000/svg">
<path d="M72.7349 0C32.658 0 0 32.6419 0 72.6992C0 112.756 32.658 145.398 72.7349 145.398C112.812 145.398 145.47 112.756 145.47 72.6992C145.47 32.6419 112.812 0 72.7349 0ZM7.34622 72.6992C7.34622 63.2483 9.3828 54.2336 13.0195 46.0913L44.2228 131.513C22.4023 120.899 7.34622 98.5801 7.34622 72.6992ZM72.7349 138.056C66.3342 138.056 60.1517 137.111 54.2602 135.366L73.8986 78.3697L93.9735 133.403C94.1189 133.694 94.2644 134.057 94.4099 134.275C87.6455 136.747 80.372 138.056 72.7349 138.056ZM81.754 42.0201C85.6817 41.802 89.2457 41.3658 89.2457 41.3658C92.737 40.9296 92.3733 35.768 88.8093 35.9861C88.8093 35.9861 78.19 36.7858 71.3529 36.7858C64.9522 36.7858 54.1147 35.9861 54.1147 35.9861C50.6235 35.8407 50.1871 41.2204 53.7511 41.4385C53.7511 41.4385 57.0969 41.8747 60.5881 42.0928L70.771 70.0093L56.4423 112.902L32.658 42.0201C36.5856 41.8747 40.1496 41.4385 40.1496 41.4385C43.6409 41.0023 43.2772 35.8407 39.7132 36.0588C39.7132 36.0588 29.0939 36.8585 22.2569 36.8585C21.0204 36.8585 19.5657 36.8585 18.0382 36.7858C29.8213 19.0472 49.8961 7.34262 72.7349 7.34262C89.7548 7.34262 105.247 13.8128 116.885 24.4996C116.594 24.4996 116.303 24.4269 116.012 24.4269C109.611 24.4269 105.029 30.0248 105.029 36.0588C105.029 41.4385 108.157 46.0186 111.43 51.3983C113.903 55.7603 116.812 61.3581 116.812 69.4277C116.812 75.0256 114.63 81.4958 111.866 90.5832L105.32 112.393L81.754 42.0201ZM130.123 41.3658C138.289 56.311 140.296 73.8515 135.718 90.2537C131.14 106.656 120.338 120.625 105.611 129.186L125.613 71.4633C129.323 62.1578 130.559 54.6698 130.559 48.0542C130.559 45.6551 130.414 43.4014 130.123 41.3658Z" fill="white"/>
</svg>
